<svg width="188" height="522" viewBox="0 0 188 522" fill="none" xmlns="http://www.w3.org/2000/svg">
<path d="M63.6774 52.0392C63.6774 50.9346 64.5729 50.0392 65.6774 50.0392H123.333C124.438 50.0392 125.333 50.9346 125.333 52.0392V114C125.333 115.105 124.438 116 123.333 116H65.6774C64.5729 116 63.6774 115.105 63.6774 114V52.0392Z" fill="#FFDAB9"/>
<path d="M69.7419 46.3529C69.7419 45.2484 70.6374 44.3529 71.7419 44.3529H117.269C118.373 44.3529 119.269 45.2484 119.269 46.3529V50.0392H69.7419V46.3529Z" fill="#FFDAB9"/>
<rect x="73.7849" y="10.2353" width="41.4409" height="34.1176" fill="#FFDAB9"/>
<path d="M34.3656 3C34.3656 1.34315 35.7087 0 37.3656 0H113.226C114.33 0 115.226 0.895431 115.226 2V10.2353H36.3656C35.261 10.2353 34.3656 9.33986 34.3656 8.23529V3Z" fill="#FFDAB9"/>
<path d="M0 198.627C0 146.713 42.0852 104.627 94 104.627V104.627C145.915 104.627 188 146.713 188 198.627V512C188 517.523 183.523 522 178 522H10C4.47715 522 0 517.523 0 512V198.627Z" fill="#E7D4F4"/>
</svg>
